<svg xmlns="http://www.w3.org/2000/svg" xmlns:xlink="http://www.w3.org/1999/xlink" viewBox="0 0 2902.85 1081.11"><defs><style>.cls-1,.cls-10,.cls-11{fill:#fff;}.cls-2{fill:#1f577b;}.cls-15,.cls-2,.cls-3,.cls-4,.cls-5,.cls-7,.cls-9{stroke:#000;}.cls-10,.cls-15,.cls-2,.cls-3,.cls-4,.cls-5,.cls-7,.cls-9{stroke-miterlimit:10;}.cls-3{fill:#193448;}.cls-4{fill:#3db3e8;}.cls-5{fill:url(#Degradado_sin_nombre_6);}.cls-6{fill:url(#Degradado_sin_nombre_6-2);}.cls-7{fill:#e9e9e9;}.cls-8{fill:#e6e9ed;}.cls-9{fill:#36ace4;}.cls-10{stroke:#fff;}.cls-11,.cls-15{font-size:926.69px;font-family:CooperBlack, Cooper Black;}.cls-12{letter-spacing:-0.25em;}.cls-13{letter-spacing:-0.02em;}.cls-14{fill:url(#Degradado_sin_nombre_83);}.cls-15{fill:none;stroke-width:5px;}</style><linearGradient id="Degradado_sin_nombre_6" x1="212.37" y1="659.53" x2="392.5" y2="347.53" gradientUnits="userSpaceOnUse"><stop offset="0" stop-color="#229ba0"/><stop offset="1" stop-color="#1082bb"/></linearGradient><linearGradient id="Degradado_sin_nombre_6-2" x1="409.34" y1="541" x2="433.13" y2="499.78" xlink:href="#Degradado_sin_nombre_6"/><linearGradient id="Degradado_sin_nombre_83" x1="947.23" y1="578.74" x2="2285.38" y2="578.74" gradientUnits="userSpaceOnUse"><stop offset="0" stop-color="#3db3e8"/><stop offset="1" stop-color="#1082bb"/></linearGradient></defs><title>Recurso 1</title><g id="Capa_2" data-name="Capa 2"><g id="Capa_7_copia" data-name="Capa 7 copia"><g id="Sombra_logo_nombre" data-name="Sombra logo nombre"><path class="cls-1" d="M341.74,1080.47A25,25,0,0,1,323,1072c-3.36-3.8-83.18-94.39-163.32-212.76C50.44,697.92-3.24,568.68.15,475.1A341.34,341.34,0,0,1,341.74,134a25,25,0,0,1,25,25v99.77a25,25,0,0,1-25,25c-107.72,0-195.36,87.64-195.36,195.36S234,674.47,341.74,674.47a25,25,0,0,1,25,25v356a25,25,0,0,1-25,25Z"/><path class="cls-1" d="M341.73,1081.11a25,25,0,0,1-25-25v-356a25,25,0,0,1,25-25c107.72,0,195.36-87.63,195.36-195.36S449.46,284.39,341.74,284.39a25,25,0,0,1-25-25V159.63a25,25,0,0,1,25-25A341.34,341.34,0,0,1,683.33,475.74c3.38,93.58-50.29,222.83-159.54,384.18-80.15,118.37-160,208.95-163.32,212.75A25,25,0,0,1,341.73,1081.11Z"/><path class="cls-1" d="M239.16,610.26a25,25,0,0,1-16.95-6.62,170.83,170.83,0,0,1-51-87.88A25,25,0,0,1,195,485.21a86.66,86.66,0,0,0,14-1.29,25,25,0,0,1,29.72,27.27c-.69,6.27.83,19.31,7.4,35.47a103.55,103.55,0,0,0,13,23.5,25,25,0,0,1-19.92,40.1Z"/><path class="cls-1" d="M354.46,413.7c-18.43,0-26.84-14.68-29.9-20.49C319,387,292.86,374.84,269,367.48a25,25,0,0,1-3.59-46.37c21.29-10.37,44.52-15.2,73.12-15.2a171.62,171.62,0,0,1,129.3,58.8A25,25,0,0,1,449,406.15c-.68,0-1.36,0-2.05-.08-7.84-.65-16-1-24.34-1l-.78,0c-2.91-.09-5.78-.13-8.52-.13-24.6,0-36.13,3.53-43.75,5.87C364.92,412.24,360.14,413.7,354.46,413.7Z"/><path class="cls-1" d="M192.4,490.81a25,25,0,0,1-24.93-27A171.07,171.07,0,0,1,233,342.17a25,25,0,0,1,32.08,1.09C283.22,359.51,294,382.18,294,403.9c0,19.88-7.17,36.46-21.3,49.26C262,462.91,249.26,468.75,237,474.4q-3.77,1.71-7.52,3.49l-2.8,1.36a171.1,171.1,0,0,1-27.22,10.55A24.83,24.83,0,0,1,192.4,490.81Z"/><path class="cls-1" d="M338.52,649.08a172.29,172.29,0,0,1-36.67-3.94,25,25,0,0,1-15-9.81,29.64,29.64,0,0,1-5.26-24c2.1-9.37,10.22-25.07,41.16-25.07a131.15,131.15,0,0,1,27.94,3.34,129.59,129.59,0,0,1,27.21,9.12A25,25,0,0,1,372,645.8,172.7,172.7,0,0,1,338.52,649.08Z"/><path class="cls-1" d="M298.23,733.33a25,25,0,0,1-8.83-1.61c-1.49-.57-3-1.2-4.52-1.88a89.8,89.8,0,0,1-27.77-20.24,102,102,0,0,1-18.8-27.77,92,92,0,0,1-8.45-35,157,157,0,0,1,.45-17c.39-5.39,1-10.81,1.81-16.11s1.82-10.36,3-15.15a112.91,112.91,0,0,1-8.87-11.12,129.89,129.89,0,0,1-13.42-24.37,124.74,124.74,0,0,1-8.09-27.58,106.68,106.68,0,0,1-1.43-13.8c-6,.59-12.42,1.14-19.63,1.65-8.33.6-16.76,1.06-25.07,1.38s-16.89.49-25.14.52h-.08a25,25,0,0,1-6-49.26c2.38-.59,4.86-1.24,7.38-1.94,8.42-2.33,17-5.06,26.24-8.35,6.08-2.17,12.32-4.55,18.54-7.06s12.2-5.08,18.19-7.77c10.87-4.89,21.3-10.05,31-15.33,9.12-4.95,17.13-9.72,24.37-14.51a26.5,26.5,0,0,1,.06-8.88c0-.48.09-1,.13-1.45a45.21,45.21,0,0,0-.23-9q-.11-.79-.24-1.59A40.43,40.43,0,0,0,242.31,379,43.23,43.23,0,0,0,230,370a25,25,0,0,1,11.06-47.41c.6,0,1.19,0,1.79.07l3.39.27A190.81,190.81,0,0,1,274,327.46a186.39,186.39,0,0,1,26.43,8.46A171.13,171.13,0,0,1,325,348.25a147.91,147.91,0,0,1,22.38,16.63c2.57,2.33,5,4.74,7.35,7.21a251.08,251.08,0,0,1,31.62-5c9.13-.86,18.1-1.3,26.66-1.3,5.85,0,11.66.2,17.27.61a235.72,235.72,0,0,1,43.39,7.23,191.3,191.3,0,0,1,41,15.66A113.49,113.49,0,0,1,531,399.73c.62.48,1.35,1.07,3,2.42l1.4,1.15a25,25,0,0,1-22.65,43.57A116.66,116.66,0,0,0,480,442.5c-18.45,0-47.35,3.52-80.25,20.31-34.05,17.37-62.6,41.12-80.36,66.86-15.66,22.68-21.29,44.43-15.88,61.25a25,25,0,0,1-1.29,18.55l-.3.75a60.22,60.22,0,0,0-3.5,15.85,111.13,111.13,0,0,0-.17,19.55,104.11,104.11,0,0,0,2.88,18.62A65.26,65.26,0,0,0,307,679.31a39.78,39.78,0,0,0,8,10.44,25,25,0,0,1-16.73,43.58Z"/><path class="cls-1" d="M437.51,577.5a53.67,53.67,0,0,1-13.78-1.86,71.57,71.57,0,0,1-27.11-14.47c-8.6-7.12-14.74-13.58-19.33-20.34-5.27-7.76-11.49-18.31-12.89-31.1A25,25,0,0,1,389.25,482c.56,0,1.12,0,1.68.05,3.48.23,7.14.38,10.88.44,1.21,0,2.43,0,3.65,0,5.59,0,11.06-.21,16.27-.61,8.4-.65,14.13-1.31,15.51-1.57a25,25,0,0,1,29.54,21.19c.82,6.07,1.36,11.8,1.74,18.56.06,1.11.12,2.23.16,3.34a228.74,228.74,0,0,1-.23,25.08c-.07,1-.14,2-.22,2.92l-.12,1.44A27,27,0,0,1,458.76,571a25.87,25.87,0,0,1-12,5.58c-.66.13-1.36.25-2,.36-1.41.21-2.91.37-4.4.45-.92.06-1.87.09-2.82.09Z"/><path class="cls-1" d="M395,524.52c-3.82,0-7.72-.09-11.61-.28a164.19,164.19,0,0,1-30.52-4,78.9,78.9,0,0,1-13-4.16A40.82,40.82,0,0,1,326.2,507a29,29,0,0,1-7.78-25.67,49,49,0,0,1,4.73-13.11c5.32-10.71,12.11-19.39,20.18-25.81,1.31-1.07,2.67-2.15,4.06-3.2a180.89,180.89,0,0,1,19.12-12.62,218.93,218.93,0,0,1,22-11.05,236.82,236.82,0,0,1,24.62-9.08A246.11,246.11,0,0,1,440,399.89a266.74,266.74,0,0,1,27.6-3.68c6.2-.49,12.34-.74,18.24-.74,2.49,0,5,0,7.41.13a168.08,168.08,0,0,1,23.5,2.39c1.83.32,3.65.68,5.4,1.07.85.18,1.71.38,2.57.59h0a30.57,30.57,0,0,1,8.06,2.85,71.8,71.8,0,0,1,13.94,9.44c11.27,9.92,16.72,23.12,14.94,36.22-1.74,12.82-9.55,23.73-23.21,32.4A103.15,103.15,0,0,1,518.78,490c-2,6.31-6.74,13.83-17.74,19.37a83.36,83.36,0,0,1-20.24,6.66c-1.57.34-3.2.67-4.86,1-3.25.73-6.64,1.38-10.34,2-6.82,1.14-14,2-21.88,2.73-7.54.66-15.37,1.09-23.29,1.29l-2.65.29A217.84,217.84,0,0,1,395,524.52Z"/><path class="cls-1" d="M288.09,714.7a26.42,26.42,0,0,1-23.92-15.36c-10.62-23.11-14.54-52.9-11-83.87.19-1.69.42-3.44.66-5.2.69-4.9,1.57-9.79,2.63-14.6-.07-.87-.12-1.69-.17-2.45-.06-1-.12-1.84-.19-2.53-.23-2.1-.48-3.91-.72-5.67-1-7.52-2.46-17.82,5.17-27.46a27.62,27.62,0,0,1,19.31-10.3c.24,0,.49,0,.73-.06l9.56-.63a25.11,25.11,0,0,1,4.19-.35c.79,0,1.59,0,2.37.11,12.84.08,25.95.71,42.71,5.22,18.23,4.9,34.58,13.89,46.05,25.3,14.82,14.75,20.72,32.86,16.21,49.7l0,.1a26.39,26.39,0,0,1-25.43,19.45h0a26.2,26.2,0,0,1-20.53-9.83c-2.42-2.14-12.93-6.67-29.69-6.88h-1.19a88.78,88.78,0,0,0-11.82.78c-2.76,7.29-4.86,19.72-2.76,35.59a95.14,95.14,0,0,0,3.19,15,26.35,26.35,0,0,1-25.29,34Z"/><path class="cls-1" d="M383.44,640.84a25,25,0,0,1-24.77-21.63c-.42-1.57-3.45-7.34-12.16-14.58a84.87,84.87,0,0,0-11.9-8.24c-6.23-3.6-11.35-4.71-19.09-6.39-5-1.08-10.68-2.31-17.3-4.37a25,25,0,0,1-17.5-25.8c1.61-20.77,12.6-41.48,30.15-56.81,15.9-13.89,34.9-21.54,53.48-21.54a61.43,61.43,0,0,1,21.28,3.69A25,25,0,0,1,399,496.74l15,27.74c2.26,2.47,7.32,5.6,12.78,8.25,0-3.15-.12-6.26-.2-9-.11-4.1-.22-8.32-.27-12.72l-.46-2.45a25,25,0,0,1,20.11-29.19c2.24-.41,4.53-.93,6.79-1.56a64.29,64.29,0,0,0,16.64-7.06,25,25,0,0,1,38.08,23.81,172.19,172.19,0,0,1-116,144.94A24.91,24.91,0,0,1,383.44,640.84Z"/></g><g id="Logo_nombre" data-name="Logo nombre"><path class="cls-2" d="M341.74,699.47c-121.7,0-220.36-98.66-220.36-220.36S220,258.75,341.74,258.75V159C166.89,159,25.15,300.72,25.15,475.57,17,688.2,341.74,1055.47,341.74,1055.47Z"/><path class="cls-3" d="M341.74,700.11c121.7,0,220.36-98.65,220.36-220.36S463.44,259.39,341.74,259.39V159.63c174.85,0,316.59,141.74,316.59,316.59,8.15,212.62-316.59,579.89-316.59,579.89Z"/><path class="cls-4" d="M223,556.08c-7.37-18.13-10.42-35.6-9.09-47.63a112,112,0,0,1-18.26,1.76,146.46,146.46,0,0,0,43.56,75.05A130.23,130.23,0,0,1,223,556.08Z"/><path class="cls-4" d="M276.34,343.59c19.36-9.43,39.2-12.68,62.18-12.68A146.27,146.27,0,0,1,449,381.15c-8.34-.68-17.2-1-26.39-1-68.3-2.15-66.36,19.76-76.24.86S276.34,343.59,276.34,343.59Z"/><path class="cls-4" d="M248.41,361.87a146,146,0,0,0-56,103.94,146,146,0,0,0,23.13-8.95c1-.52,2.09-1,3.13-1.53C243.05,443.68,269,435.56,269,403.9,269,388.14,260.39,372.62,248.41,361.87Z"/><path class="cls-4" d="M345.27,614c-20.31-4.54-37.88-3.3-39.24,2.77a5,5,0,0,0,1.14,3.94,147.68,147.68,0,0,0,60,.57A104.37,104.37,0,0,0,345.27,614Z"/><path class="cls-5" d="M515.8,419.56A89.83,89.83,0,0,0,503,411.42a169.09,169.09,0,0,0-35.75-13.6,210.51,210.51,0,0,0-38.78-6.46,240.22,240.22,0,0,0-39.78.65,216,216,0,0,0-35.08,6.09c.11,5.84,2.29,10.8.07,10.63-2-.14-4-3.4-8.12-8.29h0a95.35,95.35,0,0,0-15-17.05A121.66,121.66,0,0,0,312,369.6a144.8,144.8,0,0,0-21-10.52,162.42,162.42,0,0,0-22.88-7.32A166.07,166.07,0,0,0,244,347.81l-2.94-.24a68.49,68.49,0,0,1,19.39,14.25,65.51,65.51,0,0,1,17,34.21c.14.85.27,1.69.38,2.54a70,70,0,0,1,.36,14c-.08,1.13-.19,2.25-.32,3.37,0,.28-.25.9-.11,1.16s.94.49,1.24.61A24.36,24.36,0,0,0,285.4,419c1.53.15,3.21,0,4.69.43a6.55,6.55,0,0,1,2.66,1.26c.57.59-.2,1.06-.63,1.46-.9.85-1.82,1.69-2.74,2.52-2.9,2.61-5.85,5.19-8.94,7.58-2.79,2.15-5.82,4.36-9.05,6.59a338.45,338.45,0,0,1-30.73,18.67q-16,8.7-32.68,16.15-9.47,4.26-19.09,8.15-10,4-19.52,7.44c-9.22,3.28-18.54,6.28-28,8.89-2.66.74-5.32,1.44-8,2.11q12.14,0,24.26-.51t24.25-1.32c7.3-.52,14.59-1.13,21.87-1.9,4.78-.51,9.57-1.07,14.35-1.64,4.94-.58,9.87-1.25,14.8-2l2.83-.43c9.74-1.49,19-3.15,27.59-5a303.19,303.19,0,0,0,36.91-9.92c-6.1,4.42-16.54,9.61-29.12,14.28a213.33,213.33,0,0,1-24.36,7.47c-3.92.95-7.87,1.76-11.85,2.36-1,.14-1.94.29-2.91.39-.6.06-1.34-.14-1.58.55a36.43,36.43,0,0,0-1.24,5.15,67.62,67.62,0,0,0,.2,23.57,99.79,99.79,0,0,0,6.49,22,104,104,0,0,0,10.82,19.67,80.17,80.17,0,0,0,14.68,16.09c.75.61,1.51,1.21,2.29,1.79a125.73,125.73,0,0,0-6.85,26.58q-1.08,7-1.58,14.08a130.65,130.65,0,0,0-.41,14.27,67.58,67.58,0,0,0,6.2,25.52,77.45,77.45,0,0,0,14.2,21,65.29,65.29,0,0,0,20,14.7c1,.45,2,.86,3,1.24a65,65,0,0,1-13.14-16.93,89.81,89.81,0,0,1-8.19-20.84,128,128,0,0,1-3.63-23.1,135.75,135.75,0,0,1,.23-23.94,85,85,0,0,1,5.08-22.39q.5-1.27,1.05-2.52l0,0c-16.28-50.57,31-118.41,108.67-158,48-24.5,97.37-27.83,131.56-17.63C519.28,422.43,516.42,420,515.8,419.56Z"/><path class="cls-6" d="M443.56,521.51c-.32-5.72-.78-10.92-1.55-16.6-3.5.68-12.22,1.48-18.34,1.95-7.4.58-14.83.77-22.24.66-4.06-.07-8.12-.22-12.17-.49.77,7.09,4.61,13.72,8.71,19.76,3.85,5.67,9.4,10.83,14.6,15.12a47,47,0,0,0,17.58,9.57,27.87,27.87,0,0,0,8.75,1c.7,0,1.4-.12,2.09-.22l1-.19a1.58,1.58,0,0,0,.74-.24,2.58,2.58,0,0,0,.45-1.14c0-.41.07-.83.1-1.24.07-.85.14-1.7.19-2.55a203.24,203.24,0,0,0,.21-22.35Z"/><path class="cls-7" d="M530.29,430.71a47.91,47.91,0,0,0-9.13-6.12A9.55,9.55,0,0,0,519,424l-2.19-.5c-1.46-.32-2.93-.61-4.4-.87a144.75,144.75,0,0,0-20-2,201.65,201.65,0,0,0-22.8.54,241.26,241.26,0,0,0-25,3.34,216,216,0,0,0-24.11,5.86,209.75,209.75,0,0,0-22,8.1A195.2,195.2,0,0,0,379,448.21a155.07,155.07,0,0,0-16.47,10.86c-1.19.9-2.36,1.83-3.51,2.77-5.83,4.6-10.25,11-13.47,17.47a26.14,26.14,0,0,0-2.55,6.62,4.17,4.17,0,0,0,1.28,3.75,16.49,16.49,0,0,0,5.47,3.41,54.6,54.6,0,0,0,8.94,2.82,142.27,142.27,0,0,0,25.94,3.36,200.9,200.9,0,0,0,30.54-.78c1.15-.12,2.3-.25,3.45-.4q11.47-.24,22.92-1.23c6.68-.58,13.34-1.37,20-2.48,3.17-.53,6.32-1.13,9.44-1.84,1.53-.28,3.06-.58,4.58-.91a60.2,60.2,0,0,0,14.3-4.55c2.17-1.1,5.21-2.86,5.3-5.53a6.24,6.24,0,0,0-.26-2.35,4.42,4.42,0,0,0-1.81-2.07,20.87,20.87,0,0,0-5.06-2.3c-1.93-.67-3.9-1.24-5.88-1.79-6.14-1.73-12.28-3.42-18.35-5.36-3.26-1-6.5-2.14-9.67-3.41a35.38,35.38,0,0,1-7-3.44c-.93-.63-2.57-1.82-2-3.12a3,3,0,0,1,1.52-1.32,15.33,15.33,0,0,1,3.65-1.14,7.47,7.47,0,0,1,4.34.11,31.18,31.18,0,0,1,5.48,2.15c4.35,2.06,8.55,4.42,13.1,6.09a48.18,48.18,0,0,0,8.65,2.14c10.62,1.81,20.49,2,28.2.88a78.33,78.33,0,0,0,15.13-7.17c5.33-3.38,11-8.23,11.84-14.66C537.72,439.24,534.39,434.32,530.29,430.71Z"/><path class="cls-8" d="M332.89,575.69c-14.05-3.78-24.87-4.33-38.48-4.37-.06,0-.1-.25-.17,0l-12,.79c-4.29.41-2.51,4.55-1.29,15.86.34,3.12.32,6.11.81,8.74a1.32,1.32,0,0,1,0,.56q-1.93,7.94-3.15,16.45c-.21,1.5-.4,3-.58,4.54-3.09,27.25.57,52.49,8.91,70.61a1.37,1.37,0,0,0,2.55-1,120.85,120.85,0,0,1-4-18.93c-3.39-25.68,1.54-48.9,11.54-60.81a1.42,1.42,0,0,1,.7-.45,105.53,105.53,0,0,1,27.13-3.38l1.5,0c22.55.28,41.61,7,48.85,16.19a1.35,1.35,0,0,0,2.37-.46v0C382,603.41,362,583.53,332.89,575.69Z"/><path class="cls-9" d="M459.44,501.92c-3.05.85-6.08,1.54-9,2.08l.87,4.62c.11,22.25,2.38,42.28-3.31,54l-.95.25c-11.92,2.62-44.22-10.68-54.05-24.69l-16-29.54c-14-5.14-33.17-1.2-49.68,13.22-13.22,11.55-20.63,26.57-21.66,39.91,16,5,26.72,4.47,41.47,13a110.31,110.31,0,0,1,15.36,10.66c12.06,10,19.78,21.23,21,30.44A147,147,0,0,0,482.58,492,90,90,0,0,1,459.44,501.92Z"/></g><g id="sombra_ontoy" data-name="sombra ontoy"><path class="cls-10" d="M849.35,819.15c-46.34,0-81-5-105.81-15.29-43.49-18-50-49.54-50-66.75,0-13.33,3-24.56,9-33.38,4.77-7,12.4-14,25.52-23.48,2.64-1.94,3.59-3.32,3.71-3.66.37-1.33,2.4-10.08,4.78-48.14,2.07-33.66,3.11-69.43,3.11-106.27,0-17-1.17-24.6-1.76-27.36-1.62-1.64-6-5.54-16.18-11.85l-.14-.09c-27.69-17.38-33.5-39.65-33.5-55.27,0-21.83,9.74-40.46,28.17-53.89,13.18-9.6,36.29-20.15,72.72-33.18l.09,0C818.74,330,847.7,321,875.17,313.76c39.5-10.42,54.8-11.62,62.87-11.62a59.84,59.84,0,0,1,44.78,19.49,63.41,63.41,0,0,1,16.29,32.17,151.74,151.74,0,0,1,45.73-35c22.94-11.39,49.43-17.16,78.72-17.16,44.34,0,83.19,12,115.47,35.67l.21.15c23.45,17.51,40.2,38.72,49.78,63.05,8.84,22.46,14.09,53.18,16.08,93.92l6.34,159.39c.48,9.28,1.72,12.91,2,13.62.78,1.23,5.21,7.67,23.33,26.86l.08.08c6.79,7.26,14.89,20.23,14.89,40.88,0,19.26-7.32,54-56.36,70.13-27.14,8.92-72,13.26-137,13.26-46.1,0-78.77-4.32-99.88-13.21-17.33-7.33-30-18.4-37.42-32.33-8.3,11.94-22.45,23.6-46.22,31.72C946.72,814.48,905.66,819.15,849.35,819.15Zm154-148.72c.37,1,3.31,8,19,31.49l.34.49.31.51c.67,1.1,1.3,2.22,1.9,3.35,3-3.73,8-9.52,17.12-19.5,1.66-2.91,10.44-22.25,10.44-106.67,0-45.81-6.21-68.33-11.44-79.16-1.41-2.86-3.61-7.13-16.48-7.13-6,0-13.51.79-15.69,4.53-1.7,2.93-7.25,15.57-7.25,55.51v89.6C1001.52,663.62,1003.13,669.8,1003.31,670.43Z"/><path class="cls-10" d="M1567,821.86c-55.89,0-101.91-16.49-136.76-49-35.44-33.06-53.42-76.75-53.42-129.85V448.56h-32c-6.7,0-27.07,0-39.68-15-9.41-11.17-10.68-26.22-10.68-39.46V373.71l0-.5c.63-18.93,9.25-34.63,24.26-44.2l208.34-131,1-.52c9.48-5,20.59-7.56,33-7.56h36.65c21.83,0,33.4,9.43,39.26,17.35,6.75,9.15,9.74,21,9.74,38.44v52.81h76.34c7.66,0,31,0,45,17.14,8.12,10,11.74,23.84,11.74,45v26.7c0,21.69-4,37-12.42,48.19-7,9.25-20.83,20.27-47,20.27h-73.62V600.46c0,11.35,2.31,19.84,7,25.94,3.65,4.71,6.49,5.6,10.47,5.6,2.28,0,11.29-.89,31.59-12.27a55.75,55.75,0,0,1,28.59-8.09c12.13,0,29.71,4.52,44.59,26.07a78.93,78.93,0,0,1,14.37,45.55c0,27.87-13.93,53.7-41.41,76.76C1693.81,801.06,1634.93,821.86,1567,821.86Z"/><path class="cls-10" d="M2018.06,821.86c-79.53,0-145.27-23.37-195.42-69.45-49.66-45.52-74.85-105.33-74.85-177.74,0-80,30.32-146.47,90.13-197.46,60.83-52.21,135.45-78.69,221.77-78.69,61.13,0,115.72,16.24,162.25,48.27,33.59,23.08,60.93,53.48,81.22,90.33l.07.14c21,38.68,31.7,79.74,31.7,122,0,75-34.26,139.2-101.83,190.81C2170.69,797.72,2098.35,821.86,2018.06,821.86ZM2023,463c-4.44.09-6.26,1.32-8.17,3.66-3.48,4.27-5.24,11.06-5.24,20.19,0,15.87,3.19,38.62,9.49,67.6,6.43,29.59,14.13,56,22.87,78.56l.09.24c6.69,17.71,13.54,17.71,17.64,17.71,2.57,0,5.85-.35,6.63-1.34.37-.47,3.64-5,3.64-19.79,0-23.14-3.21-50.14-9.54-80.25-6.25-29.73-13.77-53.92-22.33-71.89C2031.5,464.2,2026,463.2,2023,463Z"/><path class="cls-10" d="M2450.18,967.56c-51.74,0-94.81-14.27-128-42.41-27.93-23.6-42.72-55.47-42.72-92.11,0-31,10.28-57.67,30.57-79.18,20.46-21.7,47-33.17,76.8-33.17s55.55,10.79,74.4,31.21c8.9,9.37,14.95,18.11,18.5,26.73,1.48,3.6,3.61,9.59,7.39,24.17q0-.69,0-1.44c0-3.4-1.49-17.66-20.65-58.22L2357.44,511c-14.05-29.55-19.63-36.49-20.43-37.4-.44-.41-6-5.36-28-15.23-11.82-4.9-21.7-13.68-29.35-26.11-7.31-11.83-11-24.06-11-36.32,0-16.41,5.74-39.89,33.09-58.59,17-11.64,40.47-20,71.66-25.68,37.24-6.63,80-10,127.06-10,35.74,0,63.76,3.83,85.66,11.71,30.92,11,45.44,29,52,45.77,5.8-13.82,18.18-29.14,43.72-40.59,24.65-11.06,55.61-16.43,94.63-16.43,36.88,0,64.67,4.74,84.95,14.5,26.43,12.71,41,34.61,41,61.65,0,18.82-6.24,35.29-18,47.65-10,10.45-24.92,18.93-46.94,26.69a39.44,39.44,0,0,0-19.65,15.52c-11.94,18.21-26.26,49.76-42.56,93.79L2715.48,726.1c-15.32,42.18-31.07,77.36-46.8,104.55-16.29,28.14-35.2,52.54-56.18,72.53C2567.71,945.9,2513.09,967.56,2450.18,967.56Zm172.53-528.42a31.31,31.31,0,0,0,2.57,11.17c1.87,4.64,6.62,14.75,18.62,36.63l.07.12c1.62,3,3.1,5.52,4.41,7.65.65-1.11,1.34-2.34,2.06-3.68,7.54-14.06,11.37-27.33,11.37-39.44,0-9.66-3-13.2-4-14.36l-.18-.21c-8.41-10-14.6-19.49-18.62-28.74a102,102,0,0,1-11.44,21.66l-.13.18C2623.53,435.74,2622.82,438.63,2622.71,439.14Z"/></g><g id="ontoy"><text class="cls-11" transform="translate(709.08 779.64)">nt<tspan class="cls-12" x="1050.67" y="0">	</tspan><tspan class="cls-13" x="1053.32" y="0">o</tspan><tspan x="1589.52" y="0">y</tspan></text><path class="cls-14" d="M1275.14,495.94l6.33,159.27q.9,18.1,5.66,26.7t27.83,33q6.78,7.24,6.78,20.36,0,29.87-35.74,41.63t-127.6,11.76q-62.45,0-88.24-10.86-26.7-11.3-26.69-36.65,0-9,2.71-13.35t18.1-21q18.09-19,18.1-126.69,0-62.45-14.48-92.31-11.78-24-43.44-24-30.32,0-41.63,19.46t-11.31,70.58v89.6q0,26.7,3.39,36.65t22.4,38.46a34.83,34.83,0,0,1,5,18.55q0,26.7-37.1,39.37T849.35,789.15q-125.8,0-125.79-52,0-10.86,3.84-16.52t18.33-16.06q11.76-8.6,14.93-19.68t5.88-54.53q3.16-51.57,3.17-108.14,0-31.21-4.75-40.95t-27.38-23.76q-19.46-12.21-19.45-29.86,0-18.09,15.84-29.64t65.15-29.18q43.44-15.37,83.71-26T938,332.14a30,30,0,0,1,22.85,9.95,33.38,33.38,0,0,1,9.27,23.53c0,.9-.15,4.68-.45,11.31a52.35,52.35,0,0,0-.45,6.34q0,21.72,18.1,21.72,10.86,0,23.07-17.2,38.91-56.1,113.13-56.11,57,0,97.73,29.87,28.51,21.27,39.82,50T1275.14,495.94Z"/><path class="cls-14" d="M1616.76,447.52V600.46q0,27.15,13.35,44.34t34.17,17.2q17.64,0,46.6-16.29a26.16,26.16,0,0,1,13.58-4.07q10.86,0,19.91,13.12a49.22,49.22,0,0,1,9.05,28.5q0,28.07-30.77,53.85-64.26,54.75-155.66,54.75-72.4,0-116.29-41T1406.81,643v-209q0-10.4-2.49-12.89c-1.66-1.65-6-2.49-12.89-2.49h-46.61q-13.12,0-16.74-4.3t-3.62-20.13V374.22q.45-13.58,10.41-19.91L1542.1,224q7.7-4.06,19-4.07h36.65q11.31,0,15.16,5.2t3.84,20.59V306.8q0,13.57,4.3,17.64t18.33,4.08h83.71q16.74,0,21.72,6.1t5,26v26.7q0,21.72-6.34,30.09t-23.08,8.37h-81.9q-12.68,0-17.19,4.53T1616.76,447.52Z"/><path class="cls-14" d="M2059.69,328.52q82.8,0,145.24,43,44.81,30.78,72,80.09,28,51.59,28,107.69,0,98.21-90,167-86,65.61-196.83,65.61-108.15,0-175.12-61.54-65.14-59.73-65.15-155.65,0-106.78,79.63-174.66Q1940.67,328.52,2059.69,328.52ZM2023.49,433q-19.92,0-31.9,14.71t-12,39.14q0,27.14,10.18,74t24.2,83q14,37.11,45.71,37.1,40.26,0,40.27-51.13,0-38-10.18-86.42t-24.66-78.74Q2050.18,433.95,2023.49,433Z"/><path class="cls-14" d="M2747,551.59l-59.73,164.25q-22.17,61.1-44.57,99.78t-50.9,65.83q-58.83,56.1-141.63,56.11-67,0-108.6-35.29-32.13-27.15-32.12-69.23,0-34.85,22.4-58.6t55-23.75q32.58,0,52.49,21.71,9.51,10,12.67,17.65t9.5,33.94q5,19.9,22.63,19.91,14,0,23.53-12.22t9.5-30.32q0-21.27-23.53-71l-109-232.12Q2367.36,462,2358.78,453t-38-22.17q-9.06-3.61-15.61-14.26t-6.56-20.58q0-40.28,80.09-54.75,53.39-9.51,121.72-9.51,48,0,75.56,10,37.09,13.13,37.11,44.79,0,11.32-10.41,26.7-10,14.49-10,25.79a60.31,60.31,0,0,0,4.76,22.63q4.74,11.76,20.13,39.82Q2634.79,533,2647.92,533q14,0,29-27.83t14.93-53.62q0-20.8-11.31-33.93-17.2-20.37-17.2-34.85,0-23.07,30.77-36.87t82.35-13.8q95.92,0,95.93,46.15,0,16.74-9.73,26.92t-35.52,19.23a69.66,69.66,0,0,0-34.39,27.15Q2772.81,481.92,2747,551.59Z"/><text class="cls-15" transform="translate(709.08 779.64)">nt<tspan class="cls-12" x="1050.67" y="0">	</tspan><tspan class="cls-13" x="1053.32" y="0">o</tspan><tspan x="1589.52" y="0">y</tspan></text></g></g></g></svg>